<?xml version="1.0" encoding="utf-8" standalone="yes"?>
<!DOCTYPE svg PUBLIC "-//W3C//DTD SVG 1.1//EN" "http://www.w3.org/Graphics/SVG/1.1/DTD/svg11.dtd">
<svg style="fill:none;stroke:none;fill-rule:evenodd;clip-rule:evenodd;stroke-linecap:round;stroke-linejoin:round;stroke-miterlimit:1.5;" version="1.1" xmlns="http://www.w3.org/2000/svg" xmlns:xlink="http://www.w3.org/1999/xlink" width="426" height="440" viewBox="0 0 426 440"><style class="text-font-style fontImports" data-font-family="Roboto">@import url(https://fonts.googleapis.com/css2?family=Roboto:wght@400;700&amp;display=block);</style><g id="items" style="isolation: isolate"><g id="blend" style="mix-blend-mode: normal"><g id="g-root-cp_0_g-0_8d3rr1fyxngo-fill" data-item-order="-142873" transform="translate(20, 252)"></g><g id="g-root-cp_0_g-0_8d3rr1fyxngo-stroke" data-item-order="-142873" transform="translate(20, 252)"><g id="cp_0_g-0_8d3rr1fyxngo-stroke" fill="none" stroke-linecap="round" stroke-linejoin="round" stroke-miterlimit="4" stroke="#484848" stroke-width="2" stroke-opacity="1"><g><path d="M 67 10L 10 10M 128.0307 10L 72.9706 10M 187 10L 134 10M 247 10L 192.9701 10M 307 10L 252.9703 10"></path></g></g></g><g id="g-root-sy_0_Vector_1utnnmf1fyxo1t-fill" data-item-order="-142869" transform="translate(322, 252)"></g><g id="g-root-sy_0_Vector_1utnnmf1fyxo1t-stroke" data-item-order="-142869" transform="translate(322, 252)"><g id="sy_0_Vector_1utnnmf1fyxo1t-stroke" fill="none" stroke-linecap="round" stroke-linejoin="round" stroke-miterlimit="4" stroke="#969696" stroke-width="2" stroke-opacity="1"><g><path d="M 65 10L 10 10"></path><path d="M 59 16.5L 65.5 10L 59 3.5" stroke-dasharray="none"></path></g></g></g><g id="g-root-cp_1_g-1_1ly0ndj1fyxoui-fill" data-item-order="-142866" transform="translate(33, 186)"><g id="cp_1_g-1_1ly0ndj1fyxoui-fill-merged" stroke="none" fill="#fffbda" fill-opacity="1"><g><path d="M10 16.857C10 13.07 12.686 10 16 10 H100C103.314 10 106 13.07 106 16.857 V51.143C106 54.93 103.314 58 100 58 H16C12.686 58 10 54.93 10 51.143 V16.857"></path></g></g></g><g id="g-root-cp_1_g-1_1ly0ndj1fyxoui-stroke" data-item-order="-142866" transform="translate(33, 186)"><g id="cp_1_g-1_1ly0ndj1fyxoui-stroke" fill="none" stroke-linecap="round" stroke-linejoin="round" stroke-miterlimit="4" stroke="#e0cb15" stroke-width="2" stroke-opacity="1"><g><path d="M 10 16.8571C 10 13.07 12.6863 10 16 10L 100 10C 103.3137 10 106 13.07 106 16.8571L 106 51.1429C 106 54.93 103.3137 58 100 58L 16 58C 12.6863 58 10 54.93 10 51.1429L 10 16.8571Z"></path></g></g></g><g id="g-root-cp_1_g-1_1_1hi75931fyxpmr-fill" data-item-order="-142861" transform="translate(77, 234)"></g><g id="g-root-cp_1_g-1_1_1hi75931fyxpmr-stroke" data-item-order="-142861" transform="translate(77, 234)"><g id="cp_1_g-1_1_1hi75931fyxpmr-stroke" fill="none" stroke-linecap="round" stroke-linejoin="round" stroke-miterlimit="4" stroke="#484848" stroke-width="2" stroke-opacity="1"><g><path d="M 13 10L 13 25M 16 28C 16 29.6569 14.6569 31 13 31C 11.3432 31 10 29.6569 10 28C 10 26.3431 11.3432 25 13 25C 14.6569 25 16 26.3431 16 28Z"></path></g></g></g><g id="g-root-cp_2_g-2_18n6m3b1fyxn9o-fill" data-item-order="-142856" transform="translate(93, 270)"><g id="cp_2_g-2_18n6m3b1fyxn9o-fill-merged" stroke="none" fill="#fff2e5" fill-opacity="1"><g><path d="M10 16.857C10 13.07 12.686 10 16 10 H100C103.314 10 106 13.07 106 16.857 V51.143C106 54.93 103.314 58 100 58 H16C12.686 58 10 54.93 10 51.143 V16.857"></path></g></g></g><g id="g-root-cp_2_g-2_18n6m3b1fyxn9o-stroke" data-item-order="-142856" transform="translate(93, 270)"><g id="cp_2_g-2_18n6m3b1fyxn9o-stroke" fill="none" stroke-linecap="round" stroke-linejoin="round" stroke-miterlimit="4" stroke="#de8431" stroke-width="2" stroke-opacity="1"><g><path d="M 10 16.8571C 10 13.07 12.6863 10 16 10L 100 10C 103.3137 10 106 13.07 106 16.8571L 106 51.1429C 106 54.93 103.3137 58 100 58L 16 58C 12.6863 58 10 54.93 10 51.1429L 10 16.8571Z"></path></g></g></g><g id="g-root-cp_2_g-2_1_147d3yv1fyxo1x-fill" data-item-order="-142851" transform="translate(138, 249)"></g><g id="g-root-cp_2_g-2_1_147d3yv1fyxo1x-stroke" data-item-order="-142851" transform="translate(138, 249)"><g id="cp_2_g-2_1_147d3yv1fyxo1x-stroke" fill="none" stroke-linecap="round" stroke-linejoin="round" stroke-miterlimit="4" stroke="#484848" stroke-width="2" stroke-opacity="1"><g><path d="M 13 31L 13 16M 16 13C 16 14.6569 14.6568 16 13 16C 11.3431 16 10 14.6569 10 13C 10 11.3431 11.3431 10 13 10C 14.6568 10 16 11.3431 16 13Z"></path></g></g></g><g id="g-root-cp_3_g-3_vbq3pz1fyxoum-fill" data-item-order="-142846" transform="translate(152, 186)"><g id="cp_3_g-3_vbq3pz1fyxoum-fill-merged" stroke="none" fill="#ffeceb" fill-opacity="1"><g><path d="M10 16.857C10 13.07 12.686 10 16 10 H100C103.314 10 106 13.07 106 16.857 V51.143C106 54.93 103.314 58 100 58 H16C12.686 58 10 54.93 10 51.143 V16.857"></path></g></g></g><g id="g-root-cp_3_g-3_vbq3pz1fyxoum-stroke" data-item-order="-142846" transform="translate(152, 186)"><g id="cp_3_g-3_vbq3pz1fyxoum-stroke" fill="none" stroke-linecap="round" stroke-linejoin="round" stroke-miterlimit="4" stroke="#e55753" stroke-width="2" stroke-opacity="1"><g><path d="M 10 16.8571C 10 13.07 12.6863 10 16 10L 100 10C 103.3137 10 106 13.07 106 16.8571L 106 51.1429C 106 54.93 103.3137 58 100 58L 16 58C 12.6863 58 10 54.93 10 51.1429L 10 16.8571Z"></path></g></g></g><g id="g-root-cp_3_g-3_1_qvwllj1fyxpmv-fill" data-item-order="-142841" transform="translate(197, 234)"></g><g id="g-root-cp_3_g-3_1_qvwllj1fyxpmv-stroke" data-item-order="-142841" transform="translate(197, 234)"><g id="cp_3_g-3_1_qvwllj1fyxpmv-stroke" fill="none" stroke-linecap="round" stroke-linejoin="round" stroke-miterlimit="4" stroke="#484848" stroke-width="2" stroke-opacity="1"><g><path d="M 13 10L 13 25M 16 28C 16 29.6569 14.6568 31 13 31C 11.3431 31 10 29.6569 10 28C 10 26.3431 11.3431 25 13 25C 14.6568 25 16 26.3431 16 28Z"></path></g></g></g><g id="g-root-cp_4_g-4_qvwllj1fyxpmw-fill" data-item-order="-142836" transform="translate(212, 270)"><g id="cp_4_g-4_qvwllj1fyxpmw-fill-merged" stroke="none" fill="#e3fff2" fill-opacity="1"><g><path d="M10 16.857C10 13.07 12.686 10 16 10 H100C103.314 10 106 13.07 106 16.857 V51.143C106 54.93 103.314 58 100 58 H16C12.686 58 10 54.93 10 51.143 V16.857"></path></g></g></g><g id="g-root-cp_4_g-4_qvwllj1fyxpmw-stroke" data-item-order="-142836" transform="translate(212, 270)"><g id="cp_4_g-4_qvwllj1fyxpmw-stroke" fill="none" stroke-linecap="round" stroke-linejoin="round" stroke-miterlimit="4" stroke="#3cc583" stroke-width="2" stroke-opacity="1"><g><path d="M 10 16.8571C 10 13.07 12.6863 10 16 10L 100 10C 103.3137 10 106 13.07 106 16.8571L 106 51.1429C 106 54.93 103.3137 58 100 58L 16 58C 12.6863 58 10 54.93 10 51.1429L 10 16.8571Z"></path></g></g></g><g id="g-root-cp_4_g-4_1_mgpkk71fyxn9d-fill" data-item-order="-142831" transform="translate(257, 249)"></g><g id="g-root-cp_4_g-4_1_mgpkk71fyxn9d-stroke" data-item-order="-142831" transform="translate(257, 249)"><g id="cp_4_g-4_1_mgpkk71fyxn9d-stroke" fill="none" stroke-linecap="round" stroke-linejoin="round" stroke-miterlimit="4" stroke="#484848" stroke-width="2" stroke-opacity="1"><g><path d="M 13 31L 13 16M 16 13C 16 14.6569 14.6568 16 13 16C 11.3431 16 10 14.6569 10 13C 10 11.3431 11.3431 10 13 10C 14.6568 10 16 11.3431 16 13Z"></path></g></g></g><g id="g-root-cp_5_g-5_dl2kbb1fyxo22-fill" data-item-order="-142826" transform="translate(273, 186)"><g id="cp_5_g-5_dl2kbb1fyxo22-fill-merged" stroke="none" fill="#edf4ff" fill-opacity="1"><g><path d="M10 16.857C10 13.07 12.686 10 16 10 H100C103.314 10 106 13.07 106 16.857 V51.143C106 54.93 103.314 58 100 58 H16C12.686 58 10 54.93 10 51.143 V16.857"></path></g></g></g><g id="g-root-cp_5_g-5_dl2kbb1fyxo22-stroke" data-item-order="-142826" transform="translate(273, 186)"><g id="cp_5_g-5_dl2kbb1fyxo22-stroke" fill="none" stroke-linecap="round" stroke-linejoin="round" stroke-miterlimit="4" stroke="#4e88e7" stroke-width="2" stroke-opacity="1"><g><path d="M 10 16.8571C 10 13.07 12.6863 10 16 10L 100 10C 103.3137 10 106 13.07 106 16.8571L 106 51.1429C 106 54.93 103.3137 58 100 58L 16 58C 12.6863 58 10 54.93 10 51.1429L 10 16.8571Z"></path></g></g></g><g id="g-root-cp_5_g-5_1_95926v1fyxoub-fill" data-item-order="-142821" transform="translate(317, 234)"></g><g id="g-root-cp_5_g-5_1_95926v1fyxoub-stroke" data-item-order="-142821" transform="translate(317, 234)"><g id="cp_5_g-5_1_95926v1fyxoub-stroke" fill="none" stroke-linecap="round" stroke-linejoin="round" stroke-miterlimit="4" stroke="#484848" stroke-width="2" stroke-opacity="1"><g><path d="M 13 10L 13 25M 16 28C 16 29.6569 14.6568 31 13 31C 11.3431 31 10 29.6569 10 28C 10 26.3431 11.3431 25 13 25C 14.6568 25 16 26.3431 16 28Z"></path></g></g></g><g id="g-root-ic_1_1umsitz1fye03v-fill" data-item-order="0" transform="translate(302, 192)"></g><g id="g-root-ic_1_1umsitz1fye03v-stroke" data-item-order="0" transform="translate(302, 192)"><g id="ic_1_1umsitz1fye03v-stroke" fill="none" stroke-linecap="round" stroke-linejoin="round" stroke-miterlimit="4" stroke="#4e88e7" stroke-width="2" stroke-opacity="1"><g><path d="M 32.125 28.5625L 32.125 26.575001L 37.675003 22.224998C 38.875 21.325001 39.474998 19.975 39.625 18.625L 40.224998 14.425C 40.375 13.225 39.474998 12.025 38.275002 12.025C 37.074997 11.875 35.875 12.775 35.875 13.975L 35.275002 18.174999C 35.275002 18.325001 35.125 18.625 34.974998 18.625L 29.875 22.674999L 25.375 22.674999L 20.275 18.625C 20.125 18.475 19.975 18.325001 19.975 18.174999L 19.375 13.975C 19.225 12.775 18.174999 11.875 16.975 12.025C 15.775 12.175 14.875 13.225 15.025 14.425L 15.625 18.625C 15.775 19.975 16.525 21.325001 17.575001 22.224998L 23.125 26.575001L 23.125 28.5625M 22.375 44.875L 22.375 40.375C 22.375 39.175003 23.424999 38.125 24.625 38.125C 25.825001 38.125 26.875 39.175003 26.875 40.375L 26.875 44.875M 32.125 38.125L 32.125 44.875M 39.625 32.424999C 39.625 33.325001 39.025002 33.924999 38.125 33.924999L 17.875 33.924999C 16.975 33.924999 16.375 33.325001 16.375 32.424999L 16.375 30.057999C 16.375 29.158001 16.975 28.557999 17.875 28.557999L 38.125 28.557999C 39.025002 28.557999 39.625 29.158001 39.625 30.057999L 39.625 32.424999ZM 20.875 33.929501L 20.875 35.875C 20.875 36.775002 20.275 37.375 19.375 37.375L 11.125 37.375L 13.375 35.125L 11.125 32.875L 16.399 32.875M 35.125 33.929501L 35.125 35.875C 35.125 36.775002 35.724998 37.375 36.625 37.375L 44.875 37.375L 42.625 35.125L 44.875 32.875L 39.600998 32.875M 27.625 19.4695C 29.903175 19.4695 31.75 17.622675 31.75 15.344501C 31.75 13.066326 29.903175 11.219501 27.625 11.219501C 25.346827 11.219501 23.5 13.066326 23.5 15.344501C 23.5 17.622675 25.346827 19.4695 27.625 19.4695Z"></path></g></g></g><g id="g-root-ic_bubb_meu5av1fyz2f5-fill" data-item-order="0" transform="translate(182, 192)"></g><g id="g-root-ic_bubb_meu5av1fyz2f5-stroke" data-item-order="0" transform="translate(182, 192)"><g id="ic_bubb_meu5av1fyz2f5-stroke" fill="none" stroke-linecap="round" stroke-linejoin="round" stroke-miterlimit="4" stroke="#e55753" stroke-width="2" stroke-opacity="1"><g><path d="M 10 10M 15.775 23.125L 14.875 15.625M 10 10M 41.125 15.625L 38.574997 33.625M 44.875 15.625L 11.125 15.625L 11.125 14.125C 11.125 12.475 12.475 11.125 14.125 11.125L 41.875 11.125C 43.525002 11.125 44.875 12.475 44.875 14.125L 44.875 15.625ZM 10 10M 27.625 15.625L 44.875 29.875M 36.175003 39.624851L 41.875 39.624851C 43.375 39.624851 44.574997 40.67485 44.574997 42.17485C 44.574997 43.67485 43.375 44.874851 41.875 44.874851L 14.125015 44.874851C 12.625015 44.874851 11.425018 43.67485 11.425018 42.17485C 11.425018 41.166698 12.09424 40.2421 12.995395 39.8386C 12.622314 38.940548 12.40369 37.954903 12.40369 36.88195C 12.40369 32.310551 16.060825 28.6534 20.632225 28.6534C 24.28936 28.6534 27.58075 31.213449 28.494999 34.687752C 29.226551 34.322052 29.957951 34.139198 30.68935 34.139198C 33.797951 34.139198 36.175003 36.516251 36.175003 39.624851Z"></path></g></g></g><g id="g-root-tx_overcomi_dcye6v1fyz1n2-fill" data-item-order="0" transform="translate(215.3984375, 368)"><g id="tx_overcomi_dcye6v1fyz1n2-fill-merged" stroke="none" fill="#484848" fill-opacity="1"><g><text style="font: 10.5px Roboto, sans-serif; white-space: pre;" transform="translate(54.6015625, 34)" font-size="10.5px" font-family="Roboto, sans-serif"><tspan x="-29.41" y="-12" dominant-baseline="ideographic">Overcoming </tspan><tspan x="-34.07" y="0" dominant-baseline="ideographic">obstacles and </tspan><tspan x="-42.6" y="12" dominant-baseline="ideographic">regaining belief in </tspan><tspan x="-20.62" y="24" dominant-baseline="ideographic">success</tspan></text></g></g></g><g id="g-root-tx_overcomi_dcye6v1fyz1n2-stroke" data-item-order="0" transform="translate(215.3984375, 368)"></g><g id="g-root-tx_reaching_zjffpz1fyz2f6-fill" data-item-order="0" transform="translate(271.375, 108)"><g id="tx_reaching_zjffpz1fyz2f6-fill-merged" stroke="none" fill="#484848" fill-opacity="1"><g><text style="font: 10.5px Roboto, sans-serif; white-space: pre;" transform="translate(58.625, 34)" font-size="10.5px" font-family="Roboto, sans-serif"><tspan x="-46.63" y="-12" dominant-baseline="ideographic">Reaching goals and </tspan><tspan x="-16.61" y="0" dominant-baseline="ideographic">feeling </tspan><tspan x="-43.7" y="12" dominant-baseline="ideographic">accomplished and </tspan><tspan x="-20.81" y="24" dominant-baseline="ideographic">satisfied</tspan></text></g></g></g><g id="g-root-tx_reaching_zjffpz1fyz2f6-stroke" data-item-order="0" transform="translate(271.375, 108)"></g><g id="g-root-tx_feelingd_13z8xuf1fyz1mw-fill" data-item-order="0" transform="translate(157.8671875, 108)"><g id="tx_feelingd_13z8xuf1fyz1mw-fill-merged" stroke="none" fill="#484848" fill-opacity="1"><g><text style="font: 10.5px Roboto, sans-serif; white-space: pre;" transform="translate(52.1328125, 34)" font-size="10.5px" font-family="Roboto, sans-serif"><tspan x="-18.13" y="-12" dominant-baseline="ideographic">Feeling </tspan><tspan x="-40.13" y="0" dominant-baseline="ideographic">discouraged and </tspan><tspan x="-37.4" y="12" dominant-baseline="ideographic">questioning the </tspan><tspan x="-33.4" y="24" dominant-baseline="ideographic">plan's viability</tspan></text></g></g></g><g id="g-root-tx_feelingd_13z8xuf1fyz1mw-stroke" data-item-order="0" transform="translate(157.8671875, 108)"></g><g id="g-root-tx_feelinge_1ha2z4n1fyz37q-fill" data-item-order="0" transform="translate(31.8359375, 120)"><g id="tx_feelinge_1ha2z4n1fyz37q-fill-merged" stroke="none" fill="#484848" fill-opacity="1"><g><text style="font: 10.5px Roboto, sans-serif; white-space: pre;" transform="translate(58.1640625, 28)" font-size="10.5px" font-family="Roboto, sans-serif"><tspan x="-45.8" y="-6" dominant-baseline="ideographic">Feeling excited and </tspan><tspan x="-46.16" y="6" dominant-baseline="ideographic">confident about the </tspan><tspan x="-21.76" y="18" dominant-baseline="ideographic">new plan</tspan></text></g></g></g><g id="g-root-tx_feelinge_1ha2z4n1fyz37q-stroke" data-item-order="0" transform="translate(31.8359375, 120)"></g><g id="g-root-tx_achievem_zjffpz1fyz2f5-fill" data-item-order="0" transform="translate(283.265625, 88)"><g id="tx_achievem_zjffpz1fyz2f5-fill-merged" stroke="none" fill="#4e88e7" fill-opacity="1"><g><text style="font: 12px Roboto, sans-serif; white-space: pre;" transform="translate(46.734375, 17)" font-size="12px" font-family="Roboto, sans-serif"><tspan x="-34.73" y="7" dominant-baseline="ideographic">Achievement</tspan></text></g></g></g><g id="g-root-tx_achievem_zjffpz1fyz2f5-stroke" data-item-order="0" transform="translate(283.265625, 88)"></g><g id="g-root-tx_lowpoint_18efyvr1fyz40f-fill" data-item-order="0" transform="translate(171.4453125, 88)"><g id="tx_lowpoint_18efyvr1fyz40f-fill-merged" stroke="none" fill="#e55753" fill-opacity="1"><g><text style="font: 12px Roboto, sans-serif; white-space: pre;" transform="translate(38.5546875, 17)" font-size="12px" font-family="Roboto, sans-serif"><tspan x="-26.55" y="7" dominant-baseline="ideographic">Low Point</tspan></text></g></g></g><g id="g-root-tx_lowpoint_18efyvr1fyz40f-stroke" data-item-order="0" transform="translate(171.4453125, 88)"></g><g id="g-root-tx_initiale_1lpwh931fyz2fh-fill" data-item-order="0" transform="translate(46.5234375, 86)"><g id="tx_initiale_1lpwh931fyz2fh-fill-merged" stroke="none" fill="#e0cb15" fill-opacity="1"><g><text style="font: 12px Roboto, sans-serif; white-space: pre;" transform="translate(43.4765625, 24)" font-size="12px" font-family="Roboto, sans-serif"><tspan x="-14.55" y="0" dominant-baseline="ideographic">Initial </tspan><tspan x="-31.48" y="14" dominant-baseline="ideographic">Enthusiasm</tspan></text></g></g></g><g id="g-root-tx_initiale_1lpwh931fyz2fh-stroke" data-item-order="0" transform="translate(46.5234375, 86)"></g><g id="g-root-tx_12weekye_9m1xz1fyxpn0-fill" data-item-order="0" transform="translate(16.125, 38)"><g id="tx_12weekye_9m1xz1fyxpn0-fill-merged" stroke="none" fill="#484848" fill-opacity="1"><g><text style="font: bold 20px Roboto, sans-serif; white-space: pre;" transform="translate(196.875, 22)" font-weight="bold" font-size="20px" font-family="Roboto, sans-serif"><tspan x="-184.88" y="12" dominant-baseline="ideographic">12 Week Year Emotional Cycle of Change</tspan></text></g></g></g><g id="g-root-tx_12weekye_9m1xz1fyxpn0-stroke" data-item-order="0" transform="translate(16.125, 38)"></g><g id="g-root-ic_1_4m9931fyz4e8-fill" data-item-order="0" transform="translate(122, 276)"></g><g id="g-root-ic_1_4m9931fyz4e8-stroke" data-item-order="0" transform="translate(122, 276)"><g id="ic_1_4m9931fyz4e8-stroke" fill="none" stroke-linecap="round" stroke-linejoin="round" stroke-miterlimit="4" stroke="#de8431" stroke-width="2" stroke-opacity="1"><g><path d="M 21.094929 44.591049L 21.094929 36.4519C 19.88077 35.327049 18.915115 33.972248 18.248529 32.475101M 34.735901 44.591049L 34.735901 40.6936L 36.6847 40.6936C 37.718353 40.6936 38.709698 40.282902 39.440651 39.551949C 40.171448 38.821152 40.58215 37.8298 40.58215 36.79615L 40.58215 32.898701L 43.050552 32.898701C 43.208649 32.898399 43.364349 32.859699 43.50415 32.7859C 43.6441 32.712101 43.76395 32.60545 43.853348 32.475101C 43.942898 32.344749 43.999302 32.19445 44.017899 32.037399C 44.036499 31.88035 44.016548 31.721199 43.95985 31.573599C 41.012199 23.927021 39.101349 17.028086 32.149601 15.62125M 20.458824 28.377399C 25.1446 28.377399 28.94305 24.57892 28.94305 19.893219C 28.94305 15.207505 25.1446 11.408997 20.458824 11.408997C 15.773125 11.408997 11.974615 15.207505 11.974615 19.893219C 11.974615 24.57892 15.773125 28.377399 20.458824 28.377399ZM 10 10M 26.66185 25.70035L 31.736801 30.705551M 18.110111 17.337431C 18.110111 16.101625 19.098759 14.989435 20.458134 14.989435C 21.693939 14.989435 22.806175 15.97804 22.806175 17.337431C 22.806175 18.573235 21.817524 19.685484 20.458134 19.685484L 20.458134 20.727671M 20.458284 24.151073C 20.296764 24.151073 20.13526 24.312611 20.13526 24.474129C 20.13526 24.635651 20.296764 24.79714 20.458284 24.79714M 20.45821 24.151073C 20.61973 24.151073 20.78125 24.312611 20.78125 24.474129C 20.78125 24.635651 20.61973 24.79714 20.45821 24.79714"></path></g></g></g><g id="g-root-ic_aura_8d3rr1fyz1my-fill" data-item-order="0" transform="translate(242, 276)"></g><g id="g-root-ic_aura_8d3rr1fyz1my-stroke" data-item-order="0" transform="translate(242, 276)"><g id="ic_aura_8d3rr1fyz1my-stroke" fill="none" stroke-linecap="round" stroke-linejoin="round" stroke-miterlimit="4" stroke="#3cc583" stroke-width="2" stroke-opacity="1"><g><path d="M 37.300003 45.25C 36.657806 40.60601 32.688183 37.147552 28 37.147552C 23.311817 37.147552 19.342194 40.60601 18.700001 45.25M 22.573 29.359001C 22.572739 32.356434 25.002565 34.786476 28 34.786476C 30.997435 34.786476 33.427261 32.356434 33.427002 29.359001C 33.427261 26.361565 30.997435 23.931526 28 23.931526C 25.002565 23.931526 22.572739 26.361565 22.573 29.359001M 28 10.75L 28 14.627501M 32.012501 13.978L 31.709499 15.1405M 41.406998 15.929501L 38.306499 19.061501M 45.057999 24.987999L 42.017498 25.771M 23.987499 13.978L 24.290501 15.1405M 14.593 15.929501L 17.693501 19.061501M 10.942 24.987999L 13.9825 25.771M 45.057999 33.73L 42.017498 32.946999M 10.942 33.73L 13.9825 32.946999M 19.471001 14.4055L 20.633501 16.6M 11.884 20.054501L 15.241 21.9925M 10.942 29.359001L 13.268499 29.359001M 11.884 38.663498L 15.241 36.725498M 36.7495 13.99L 35.366501 16.6M 43.538498 20.387501L 40.759003 21.9925M 45.057999 29.359001L 42.731499 29.359001M 44.115997 38.663498L 40.759003 36.725498M 19.067501 34.510002C 18.554777 33.650421 18.170227 32.720627 17.926001 31.75M 17.6245 28.928501C 17.649633 27.928564 17.818359 26.937431 18.1255 25.9855M 19.363001 23.431C 19.93058 22.607544 20.603268 21.861738 21.364 21.2125M 23.7775 19.717001C 24.69043 19.309687 25.658276 19.03879 26.650002 18.913M 29.4895 18.934C 30.480328 19.069565 31.444824 19.354818 32.349998 19.780001M 34.75 21.3085C 35.509415 21.961775 36.172497 22.719294 36.719498 23.5585M 37.924 26.120499C 38.207432 27.079746 38.36179 28.072481 38.383003 29.0725M 38.037998 31.8895C 37.781017 32.856644 37.383804 33.780949 36.859001 34.632999"></path></g></g></g><g id="g-root-tx_realitys_qnsfh31fyz37v-fill" data-item-order="0" transform="translate(100.40625, 348)"><g id="tx_realitys_qnsfh31fyz37v-fill-merged" stroke="none" fill="#de8431" fill-opacity="1"><g><text style="font: 12px Roboto, sans-serif; white-space: pre;" transform="translate(49.59375, 17)" font-size="12px" font-family="Roboto, sans-serif"><tspan x="-37.59" y="7" dominant-baseline="ideographic">Reality Sets In</tspan></text></g></g></g><g id="g-root-tx_realitys_qnsfh31fyz37v-stroke" data-item-order="0" transform="translate(100.40625, 348)"></g><g id="g-root-tx_renewedh_dcye6v1fyz1n1-fill" data-item-order="0" transform="translate(217.8046875, 348)"><g id="tx_renewedh_dcye6v1fyz1n1-fill-merged" stroke="none" fill="#3cc583" fill-opacity="1"><g><text style="font: 12px Roboto, sans-serif; white-space: pre;" transform="translate(52.1953125, 17)" font-size="12px" font-family="Roboto, sans-serif"><tspan x="-40.2" y="7" dominant-baseline="ideographic">Renewed Hope</tspan></text></g></g></g><g id="g-root-tx_renewedh_dcye6v1fyz1n1-stroke" data-item-order="0" transform="translate(217.8046875, 348)"></g><g id="g-root-tx_realizin_m7yxcn1fyz404-fill" data-item-order="0" transform="translate(92.1015625, 368)"><g id="tx_realizin_m7yxcn1fyz404-fill-merged" stroke="none" fill="#484848" fill-opacity="1"><g><text style="font: 10.5px Roboto, sans-serif; white-space: pre;" transform="translate(57.8984375, 28)" font-size="10.5px" font-family="Roboto, sans-serif"><tspan x="-29.85" y="-6" dominant-baseline="ideographic">Realizing the </tspan><tspan x="-35.2" y="6" dominant-baseline="ideographic">challenges and </tspan><tspan x="-45.9" y="18" dominant-baseline="ideographic">potential difficulties</tspan></text></g></g></g><g id="g-root-tx_realizin_m7yxcn1fyz404-stroke" data-item-order="0" transform="translate(92.1015625, 368)"></g><g id="g-root-ic_boy_8x4w2f1fyz2fb-fill" data-item-order="0" transform="translate(62, 192)"></g><g id="g-root-ic_boy_8x4w2f1fyz2fb-stroke" data-item-order="0" transform="translate(62, 192)"><g id="ic_boy_8x4w2f1fyz2fb-stroke" fill="none" stroke-linecap="round" stroke-linejoin="round" stroke-miterlimit="4" stroke="#e0cb15" stroke-width="2" stroke-opacity="1"><g><path d="M 27.849998 21.624985C 30.7495 21.624985 33.099998 19.274485 33.099998 16.374985C 33.099998 13.4755 30.7495 11.124988 27.849998 11.124988C 24.9505 11.124988 22.599985 13.4755 22.599985 16.374985C 22.599985 19.274485 24.9505 21.624985 27.849998 21.624985ZM 30.700001 25.674999C 31.299999 25.674999 31.900002 25.375 32.349998 25.075001L 37.150002 20.275C 37.75 19.674999 38.5 19.375 39.25 19.375C 40 19.375 40.75 19.674999 41.349998 20.275C 42.550003 21.475 42.550003 23.275002 41.349998 24.325001L 34 31.674999L 34 41.875C 34 43.525002 32.650002 44.875 31 44.875C 29.349998 44.875 28 43.525002 28 41.875L 28 41.425003C 28 43.074997 26.650002 44.425003 24.999985 44.425003C 23.349985 44.425003 21.999985 43.074997 21.999985 41.425003L 21.999985 31.375L 14.65 24.324986C 13.45 23.124985 13.45 21.324986 14.65 20.274984C 15.25 19.674984 15.999985 19.374969 16.749985 19.374969C 17.499985 19.374969 18.249985 19.674984 18.849985 20.274984L 23.650002 25.075001C 24.099998 25.525002 24.69997 25.674999 25.299999 25.674999L 30.700001 25.674999ZM 28 41.425003L 28 36.625"></path></g></g></g></g></g></svg>
